# xmcd
#
# Track frame offsets:
#	150
#	16498
#	33525
#	50446
#	71644
#	90756
#	105422
#	122383
#	143442
#	161996
#
# Disc length: 2341 seconds
# Revision: 0
# Processed by: cddbd v1.5.2PL0 Copyright (c) Steve Scherf et al.
# Submitted via: dBpowerAMP V12.0
#
DISCID=7609230a
DTITLE=Kaz Hawkins Band - Get Ready!
DYEAR=2014
DGENRE=Blues
TTITLE0=Hallelujah Happy People
TTITLE1=I saw a Man
TTITLE2=Believe with Me
TTITLE3=Shake
TTITLE4=Get Ready
TTITLE5=Can't Afford Me
TTITLE6=Coz You
TTITLE7=Drink with the Devil
TTITLE8=Born to be Lovers
TTITLE9=Walkin on my Own
EXTD=
EXTT0=
EXTT1=
EXTT2=
EXTT3=
EXTT4=
EXTT5=
EXTT6=
EXTT7=
EXTT8=
EXTT9=
PLAYORDER=
